<?xml version="1.0" encoding="UTF-8"?> <svg xmlns="http://www.w3.org/2000/svg" id="Layer_1" data-name="Layer 1" viewBox="0 0 684.56 133.89"><defs><style> .cls-1 { fill: #dea54b; } .cls-2 { fill: #fff; } </style></defs><g><polygon class="cls-1" points="143.71 55.21 125.93 72.99 123.33 75.62 118.09 80.85 112.86 75.62 110.26 73.01 110.24 72.99 95.54 58.3 100.77 53.06 118.09 70.38 120.7 67.78 133.27 55.21 130.65 52.6 115.95 37.89 113.32 35.28 108.09 30.05 105.49 27.42 92.92 14.87 80.36 27.42 75.13 22.19 92.92 4.41 143.71 55.21"></polygon><g><polygon class="cls-2" points="85.04 103.44 90.27 108.67 69.44 129.48 39.05 99.09 36.44 96.49 3.26 63.3 24.13 42.43 26.76 39.83 57.15 9.44 62.38 14.67 64.98 17.28 90.31 42.6 85.08 47.83 64.67 27.42 59.75 22.51 57.15 19.9 37.2 39.83 31.99 45.06 29.36 47.67 13.72 63.3 41.66 91.25 44.28 93.86 49.51 99.09 69.44 119.04 85.04 103.44"></polygon><polygon class="cls-2" points="92.92 106.01 92.95 106.04 92.92 106.08 92.88 106.04 92.92 106.01"></polygon><rect class="cls-2" x="92.89" y="95.55" width=".05" height=".05" transform="translate(-40.37 93.49) rotate(-44.91)"></rect><polygon class="cls-2" points="182.57 63.3 149.41 96.49 146.8 99.09 116.41 129.48 95.58 108.65 95.54 108.61 92.95 106.04 92.92 106.01 92.88 106.04 70.35 83.51 92.92 60.96 115.47 83.51 100.79 98.21 95.56 92.97 105.02 83.51 92.92 71.4 80.81 83.51 90.25 92.96 92.88 95.58 92.92 95.62 92.95 95.58 116.41 119.04 136.34 99.09 141.57 93.86 144.18 91.25 172.13 63.3 156.49 47.67 153.86 45.06 148.63 39.83 128.7 19.9 126.1 22.51 121.18 27.44 115.95 22.21 120.87 17.28 128.7 9.44 159.09 39.83 161.72 42.45 182.57 63.3"></polygon><rect class="cls-2" x="92.89" y="95.55" width=".05" height=".05" transform="translate(-40.37 93.7) rotate(-45)"></rect></g><path class="cls-2" d="M92.95,95.58l-.04-.04-.04.04.04.04.04-.04ZM92.88,106.04l.04.04.04-.04-.04-.04-.04.04Z"></path><path class="cls-2" d="M92.92,106.01l-.04.04.04.04.04-.04-.04-.04Z"></path><polygon class="cls-1" points="110.72 37.89 100.77 47.83 98.17 50.46 92.93 55.69 90.31 58.3 75.61 73.01 72.99 75.62 67.78 80.85 67.76 80.85 62.54 75.62 62.53 75.62 59.92 73.01 59.92 72.99 42.14 55.21 47.35 49.98 49.97 47.37 64.67 32.66 69.9 37.89 55.21 52.6 52.58 55.21 65.15 67.78 67.76 70.38 70.38 67.78 85.08 53.06 87.7 50.46 92.93 45.23 95.54 42.6 105.49 32.66 110.72 37.89"></polygon></g><g><g><path class="cls-2" d="M216.64,59.7c-.35-.21-.58-.52-.69-.92-.11-.4,0-.92.33-1.55l.92-1.87h12.1l.89,1.87c.28.61.38,1.12.28,1.53-.09.41-.32.72-.67.93v.28h6.37v-.28c-.24-.12-.49-.33-.77-.65-.28-.32-.56-.77-.84-1.36l-11.12-22.46h-.35l-11.16,22.46c-.28.59-.56,1.04-.83,1.37-.27.33-.53.54-.79.63v.28h6.34v-.28ZM218.85,51.95l4.38-9.32,4.45,9.32h-8.83Z"></path><path class="cls-2" d="M254.93,58.54c2.02-.96,3.56-2.35,4.63-4.15,1.07-1.81,1.6-3.99,1.6-6.55s-.53-4.74-1.6-6.55c-1.07-1.81-2.61-3.19-4.63-4.15-2.02-.96-4.45-1.44-7.29-1.44h-8.03v.28c.38.26.67.66.88,1.21.21.55.32,1.32.32,2.31v16.69c0,.99-.11,1.75-.32,2.31-.21.55-.5.96-.88,1.21v.28h8.03c2.84,0,5.27-.48,7.29-1.44ZM248.17,39.17c1.85,0,3.46.36,4.82,1.07,1.36.72,2.42,1.72,3.17,3.01s1.13,2.82,1.13,4.58-.38,3.26-1.13,4.56c-.75,1.3-1.81,2.31-3.17,3.03-1.36.72-2.97,1.07-4.82,1.07h-3.59v-17.32h3.59Z"></path><path class="cls-2" d="M287.08,36.53c.28-.28.5-.47.67-.56v-.28h-6.41v.28c.35.17.59.46.72.88.13.42.03.97-.3,1.65l-6.61,14.21-6.59-13.96c-.35-.75-.49-1.34-.42-1.78s.29-.77.67-1v-.28h-6.51v.28c.19.09.42.28.7.56.28.28.54.67.77,1.16l11.12,22.74h.35l11.02-22.71c.26-.52.53-.92.81-1.2Z"></path><path class="cls-2" d="M311.09,57.02c1.15-1.13,2.04-2.47,2.66-4.03.62-1.56.93-3.28.93-5.16s-.31-3.6-.93-5.16-1.51-2.9-2.66-4.03c-1.15-1.13-2.51-2-4.08-2.62-1.57-.62-3.31-.93-5.21-.93s-3.67.31-5.25.93c-1.57.62-2.93,1.5-4.08,2.62-1.15,1.13-2.04,2.47-2.66,4.03-.62,1.56-.93,3.28-.93,5.16s.31,3.6.93,5.16c.62,1.56,1.51,2.9,2.66,4.03,1.15,1.13,2.51,2,4.08,2.62,1.57.62,3.32.93,5.25.93s3.64-.31,5.21-.93c1.57-.62,2.93-1.5,4.08-2.62ZM301.8,56.99c-1.78,0-3.35-.39-4.7-1.16-1.35-.77-2.41-1.85-3.19-3.24s-1.16-2.97-1.16-4.75.39-3.4,1.16-4.77,1.84-2.45,3.19-3.22c1.35-.77,2.92-1.16,4.7-1.16s3.34.39,4.68,1.16,2.39,1.85,3.17,3.22,1.16,2.96,1.16,4.77-.39,3.37-1.16,4.75-1.83,2.46-3.17,3.24-2.9,1.16-4.68,1.16Z"></path><path class="cls-2" d="M334.07,60.07c.66-.08,1.22-.21,1.69-.37v-4.65h-.25c-.16.24-.37.45-.62.63-.25.19-.53.34-.86.46-.7.28-1.48.42-2.32.42-1.69,0-3.19-.38-4.51-1.14-1.32-.76-2.35-1.81-3.12-3.13-.76-1.33-1.14-2.86-1.14-4.59,0-1.2.22-2.32.65-3.36.43-1.04,1.03-1.96,1.78-2.75.75-.79,1.62-1.4,2.62-1.83,1-.43,2.07-.65,3.22-.65.94,0,1.76.13,2.46.39.3.09.6.22.9.39.29.16.52.34.69.53h.28v-4.96c-.33.12-.67.18-1.02.18-.28,0-.65-.02-1.09-.07-.45-.05-.96-.07-1.55-.07-1.9,0-3.63.3-5.19.9-1.56.6-2.91,1.44-4.05,2.52-1.14,1.08-2.02,2.37-2.64,3.86-.62,1.49-.93,3.14-.93,4.95,0,2.46.55,4.63,1.64,6.51,1.09,1.88,2.6,3.34,4.52,4.4,1.92,1.06,4.15,1.58,6.69,1.58.77,0,1.49-.04,2.15-.12Z"></path><path class="cls-2" d="M345.48,59.7c-.35-.21-.58-.52-.69-.92-.11-.4,0-.92.33-1.55l.92-1.87h12.1l.89,1.87c.28.61.38,1.12.28,1.53-.09.41-.32.72-.67.93v.28h6.37v-.28c-.24-.12-.49-.33-.77-.65-.28-.32-.56-.77-.84-1.36l-11.12-22.46h-.35l-11.16,22.46c-.28.59-.56,1.04-.83,1.37-.27.33-.53.54-.79.63v.28h6.34v-.28ZM347.69,51.95l4.38-9.32,4.45,9.32h-8.83Z"></path><path class="cls-2" d="M371.92,58.54c-.2.54-.49.93-.86,1.16v.28h6.02v-.28c-.35-.23-.63-.62-.83-1.16-.2-.54-.3-1.29-.3-2.25v-17.11h3.34c.96,0,1.72.11,2.29.33.56.22.97.56,1.23,1h.28v-5.1c-.38.09-.8.16-1.27.21-.47.05-.95.07-1.44.07h-12.64c-.45,0-.91-.02-1.39-.07-.48-.05-.91-.12-1.29-.21v5.1h.28c.26-.45.67-.78,1.23-1,.56-.22,1.31-.33,2.25-.33h3.38v17.11c0,.96-.1,1.71-.3,2.25Z"></path><path class="cls-2" d="M402.51,60.03c.47.04.88.11,1.23.23v-5.1h-.25c-.26.42-.67.75-1.23.99-.56.23-1.33.35-2.29.35h-8.03v-8.34h4.01c.82,0,1.43.08,1.83.23s.7.36.92.62h.28v-5.18h-.28c-.21.26-.52.46-.92.62-.4.15-1.01.23-1.83.23h-4.01v-5.49h7.85c.94,0,1.69.11,2.25.33.56.22.97.56,1.23,1h.28v-5.1c-.38.09-.8.16-1.27.21-.47.05-.95.07-1.44.07h-13.87v.28c.38.26.67.66.88,1.21.21.55.32,1.32.32,2.31v16.69c0,.99-.11,1.75-.32,2.31-.21.55-.5.96-.88,1.21v.28h14.08c.49,0,.97.02,1.44.05Z"></path><path class="cls-2" d="M411.93,47.91l1.76,1.16c1.13.75,1.94,1.45,2.45,2.09s.76,1.38.76,2.2c0,.96-.38,1.77-1.13,2.41s-1.77.97-3.06.97c-.54,0-1.03-.06-1.46-.18-.43-.12-.8-.26-1.11-.42-.23-.12-.45-.26-.65-.42s-.42-.36-.65-.6h-.25v4.61c.45.12,1.03.22,1.76.32s1.46.14,2.18.14c2.72,0,4.81-.64,6.25-1.92s2.17-2.92,2.17-4.91c0-.99-.17-1.88-.51-2.69-.34-.81-.83-1.57-1.48-2.27s-1.46-1.38-2.45-2.04l-1.72-1.16c-.94-.63-1.6-1.2-1.99-1.69-.39-.49-.58-1.07-.58-1.72,0-.8.32-1.47.95-2.01s1.48-.81,2.54-.81c.38,0,.7.04.99.11.28.07.53.14.74.21.33.09.62.23.86.41.25.18.45.37.62.58h.28v-4.82c-.4.12-.74.18-1.02.18-.23,0-.51-.02-.83-.07-.32-.05-.72-.07-1.21-.07-2.49,0-4.44.58-5.84,1.74s-2.11,2.68-2.11,4.56c0,1.24.3,2.35.9,3.33.6.97,1.55,1.91,2.87,2.8Z"></path><path class="cls-2" d="M434.36,37.19c.21.55.32,1.32.32,2.31v16.79c0,.96-.09,1.71-.28,2.25s-.46.93-.81,1.16v.28h6.13v-.28c-.42-.23-.74-.62-.95-1.14-.21-.53-.32-1.29-.32-2.27v-7.92h4.01c.82,0,1.43.08,1.83.23.4.15.7.36.92.62h.28v-5.17h-.28c-.21.26-.52.46-.92.62s-1.01.23-1.83.23h-4.01v-5.7h7.85c.94,0,1.69.11,2.25.33.56.22.97.56,1.23,1h.28v-5.1c-.38.09-.8.16-1.27.21-.47.05-.95.07-1.44.07h-13.87v.28c.38.26.67.66.88,1.21Z"></path><path class="cls-2" d="M478.21,52.99c.62-1.56.93-3.28.93-5.16s-.31-3.6-.93-5.16-1.51-2.9-2.66-4.03c-1.15-1.13-2.51-2-4.08-2.62-1.57-.62-3.31-.93-5.21-.93s-3.67.31-5.25.93c-1.57.62-2.93,1.5-4.08,2.62-1.15,1.13-2.04,2.47-2.66,4.03-.62,1.56-.93,3.28-.93,5.16s.31,3.6.93,5.16c.62,1.56,1.51,2.9,2.66,4.03,1.15,1.13,2.51,2,4.08,2.62,1.57.62,3.32.93,5.25.93s3.64-.31,5.21-.93c1.57-.62,2.93-1.5,4.08-2.62,1.15-1.13,2.04-2.47,2.66-4.03ZM474.11,52.59c-.77,1.38-1.83,2.46-3.17,3.24s-2.9,1.16-4.68,1.16-3.35-.39-4.7-1.16c-1.35-.77-2.41-1.85-3.19-3.24s-1.16-2.97-1.16-4.75.39-3.4,1.16-4.77,1.84-2.45,3.19-3.22c1.35-.77,2.92-1.16,4.7-1.16s3.34.39,4.68,1.16,2.39,1.85,3.17,3.22,1.16,2.96,1.16,4.77-.39,3.37-1.16,4.75Z"></path><path class="cls-2" d="M496.69,59.7v.28h6.34v-.28c-.23-.09-.54-.4-.93-.92-.39-.52-.73-1.13-1.04-1.83l-3.48-8.47c.8-.46,1.47-.97,2.02-1.55,1.23-1.3,1.85-2.89,1.85-4.77,0-2.06-.7-3.66-2.09-4.79-1.4-1.13-3.37-1.69-5.93-1.69h-9.89v.28c.38.26.67.66.88,1.21.21.55.32,1.32.32,2.31v16.79c0,.96-.09,1.71-.28,2.25s-.46.93-.81,1.16v.28h5.95v-.28c-.35-.23-.62-.62-.81-1.16s-.28-1.29-.28-2.25v-4.72l5.53-1.65c.08-.02.15-.05.23-.07l2.79,7.11c.28.68.38,1.26.3,1.72-.08.47-.3.81-.65,1.02ZM488.49,47.99v-8.85h4.61c1.41,0,2.5.28,3.27.83.77.55,1.16,1.32,1.16,2.31,0,.8-.18,1.48-.53,2.06-.35.58-.93,1.08-1.72,1.51-.8.43-1.87.83-3.2,1.18l-3.59.97Z"></path></g><g><g><path class="cls-1" d="M226.27,92.09c-.25.18-.53.32-.86.44-.66.28-1.37.42-2.15.42-1.31,0-2.48-.3-3.5-.9-1.02-.6-1.82-1.42-2.39-2.46-.58-1.04-.86-2.25-.86-3.61,0-.94.16-1.82.47-2.64.32-.82.77-1.54,1.36-2.15s1.27-1.08,2.06-1.43c.79-.34,1.62-.51,2.52-.51.82,0,1.55.11,2.18.32.28.07.57.19.86.35.29.17.53.33.72.49h.28v-6.76c-.38.12-.73.18-1.06.18-.26,0-.6-.02-1.02-.05-.42-.04-.92-.05-1.48-.05-1.95,0-3.73.29-5.33.88-1.61.59-2.99,1.42-4.14,2.5-1.15,1.08-2.04,2.37-2.68,3.87s-.95,3.17-.95,5c0,2.49.55,4.66,1.64,6.53,1.09,1.87,2.62,3.32,4.58,4.37,1.96,1.04,4.23,1.57,6.81,1.57.75,0,1.45-.04,2.09-.11s1.21-.18,1.71-.32v-6.48h-.28c-.14.19-.33.37-.58.54Z"></path><path class="cls-1" d="M251.24,96.88c-.42-.58-.8-1.26-1.13-2.06l-3-7.33c.61-.41,1.15-.85,1.61-1.34,1.33-1.42,1.99-3.14,1.99-5.16,0-2.25-.73-3.99-2.2-5.21-1.47-1.22-3.56-1.83-6.28-1.83h-11.16v.28c.35.31.63.77.84,1.39.21.62.32,1.49.32,2.59v15.77c0,1.1-.09,1.97-.28,2.59-.19.62-.46,1.09-.81,1.39v.28h7.78v-.28c-.35-.3-.62-.77-.79-1.39-.18-.62-.26-1.48-.26-2.59v-3.14l4.36-1.3,2.08,5.45c.28.75.38,1.37.28,1.85-.09.48-.29.85-.6,1.11v.28h8.27v-.28c-.26-.14-.6-.5-1.02-1.07ZM237.86,85.9v-7.06h3.66c1.08,0,1.91.21,2.5.63.59.42.88,1.03.88,1.83,0,.66-.15,1.23-.44,1.71-.29.48-.76.9-1.41,1.25-.65.35-1.51.67-2.59.95l-2.61.69Z"></path><path class="cls-1" d="M271.15,92.78c-.63.19-1.5.28-2.61.28h-6.55v-5.6h2.96c.87,0,1.54.06,2.01.19.47.13.83.31,1.09.55h.28v-6.27h-.28c-.26.24-.62.42-1.09.55-.47.13-1.14.19-2.01.19h-2.96v-3.56h6.37c1.1,0,1.97.09,2.61.26.63.18,1.09.46,1.37.86h.28v-6.58c-.4.09-.87.16-1.41.21-.54.05-1.08.07-1.62.07h-14.4v.28c.38.28.67.74.88,1.37.21.63.32,1.5.32,2.61v15.77c0,1.1-.11,1.97-.32,2.59-.21.62-.5,1.09-.88,1.39v.28h14.58c.56,0,1.11.02,1.64.05s1,.11,1.43.23v-6.58h-.28c-.31.38-.77.66-1.41.84Z"></path><path class="cls-1" d="M301.95,97.22c-.32-.38-.64-.89-.97-1.55l-11.48-22.28h-.39l-11.3,21.97c-.38.73-.73,1.31-1.06,1.74-.33.43-.63.72-.92.86v.28h8.17v-.28c-.33-.21-.53-.54-.6-.99-.07-.45.06-1,.39-1.65l.21-.42h10.47l.2.42c.33.66.46,1.2.39,1.64-.07.43-.27.77-.6,1v.28h8.31v-.28c-.23-.12-.51-.36-.83-.74ZM292.27,90.25h-5.99l2.99-6.31,3,6.31Z"></path><path class="cls-1" d="M318.28,73.95h-12.53c-.52,0-1.04-.02-1.58-.07s-1.02-.12-1.44-.21v6.58h.28c.28-.4.75-.69,1.39-.86.65-.18,1.51-.26,2.59-.26h2.22v14.86c0,1.1-.09,1.97-.26,2.59s-.44,1.09-.79,1.39v.28h7.75v-.28c-.35-.3-.62-.77-.79-1.39-.18-.62-.26-1.48-.26-2.59v-14.86h2.22c1.08,0,1.94.09,2.59.26.64.18,1.11.46,1.39.86h.28v-6.58c-.4.09-.87.16-1.41.21s-1.08.07-1.62.07Z"></path><path class="cls-1" d="M324.79,74.23c.35.31.62.77.81,1.39.19.62.28,1.49.28,2.59v15.77c0,1.1-.09,1.97-.28,2.59-.19.62-.46,1.09-.81,1.39v.28h7.78v-.28c-.35-.3-.62-.77-.79-1.39-.18-.62-.26-1.48-.26-2.59v-15.77c0-1.1.09-1.97.26-2.59.18-.62.44-1.08.79-1.39v-.28h-7.78v.28Z"></path><path class="cls-1" d="M353.7,74.23c.33.19.55.52.65,1s-.02,1.1-.37,1.85l-4.94,10.56-4.85-10.28c-.4-.87-.56-1.54-.49-2.01s.28-.84.63-1.13v-.28h-8.77v.28c.21.14.47.37.77.69.3.32.6.76.88,1.32l11.48,22.57h.39l11.44-22.57c.3-.56.61-1,.92-1.32.3-.32.56-.54.77-.69v-.28h-8.52v.28Z"></path><path class="cls-1" d="M381.06,92.78c-.63.19-1.5.28-2.61.28h-6.55v-5.6h2.96c.87,0,1.54.06,2.01.19.47.13.83.31,1.09.55h.28v-6.27h-.28c-.26.24-.62.42-1.09.55-.47.13-1.14.19-2.01.19h-2.96v-3.56h6.37c1.1,0,1.97.09,2.61.26.63.18,1.09.46,1.37.86h.28v-6.58c-.4.09-.87.16-1.41.21-.54.05-1.08.07-1.62.07h-14.4v.28c.38.28.67.74.88,1.37.21.63.32,1.5.32,2.61v15.77c0,1.1-.11,1.97-.32,2.59-.21.62-.5,1.09-.88,1.39v.28h14.58c.56,0,1.11.02,1.64.05s1,.11,1.43.23v-6.58h-.28c-.31.38-.77.66-1.41.84Z"></path></g><path class="cls-2" d="M410.25,94.4c-.56.23-1.33.35-2.29.35h-8.03v-8.34h4.01c.82,0,1.43.08,1.83.23s.7.36.92.62h.28v-5.18h-.28c-.21.26-.52.46-.92.62-.4.15-1.01.23-1.83.23h-4.01v-5.49h7.85c.94,0,1.69.11,2.25.33.56.22.97.56,1.23,1h.28v-5.1c-.38.09-.8.16-1.27.21-.47.05-.95.07-1.44.07h-13.87v.28c.38.26.67.66.88,1.21.21.55.32,1.32.32,2.31v16.69c0,.99-.11,1.75-.32,2.31-.21.55-.5.96-.88,1.21v.28h14.08c.49,0,.97.02,1.44.05.47.04.88.11,1.23.23v-5.1h-.25c-.26.42-.67.75-1.23.99Z"></path><path class="cls-2" d="M430.04,74.23c.35.24.62.62.81,1.16.19.54.28,1.29.28,2.25v6.88l-9.36-7.8c-.45-.4-.72-.82-.83-1.27-.11-.45-.03-.89.23-1.34v-.18h-5v.28c.38.26.67.69.88,1.29.21.6.32,1.38.32,2.34v16.69c0,.96-.09,1.71-.28,2.25s-.46.93-.81,1.16v.28h5.95v-.28c-.35-.23-.62-.62-.81-1.16s-.28-1.29-.28-2.25v-13.79l10,8.38v5.41c0,.96-.09,1.71-.28,2.25-.19.54-.46.93-.81,1.16v.28h5.95v-.28c-.35-.23-.63-.62-.83-1.16-.2-.54-.3-1.29-.3-2.25v-16.9c0-.96.1-1.71.3-2.25.2-.54.47-.93.83-1.16v-.28h-5.95v.28Z"></path><path class="cls-2" d="M455.27,73.95h-12.64c-.45,0-.91-.02-1.39-.07-.48-.05-.91-.12-1.29-.21v5.1h.28c.26-.45.67-.78,1.23-1,.56-.22,1.31-.33,2.25-.33h3.38v17.11c0,.96-.1,1.71-.3,2.25-.2.54-.49.93-.86,1.16v.28h6.02v-.28c-.35-.23-.63-.62-.83-1.16-.2-.54-.3-1.29-.3-2.25v-17.11h3.34c.96,0,1.72.11,2.29.33.56.22.97.56,1.23,1h.28v-5.1c-.38.09-.8.16-1.27.21-.47.05-.95.07-1.44.07Z"></path><path class="cls-2" d="M477.15,94.4c-.56.23-1.33.35-2.29.35h-8.03v-8.34h4.01c.82,0,1.43.08,1.83.23s.7.36.92.62h.28v-5.18h-.28c-.21.26-.52.46-.92.62-.4.15-1.01.23-1.83.23h-4.01v-5.49h7.85c.94,0,1.69.11,2.25.33.56.22.97.56,1.23,1h.28v-5.1c-.38.09-.8.16-1.27.21-.47.05-.95.07-1.44.07h-13.87v.28c.38.26.67.66.88,1.21.21.55.32,1.32.32,2.31v16.69c0,.99-.11,1.75-.32,2.31-.21.55-.5.96-.88,1.21v.28h14.08c.49,0,.97.02,1.44.05.47.04.88.11,1.23.23v-5.1h-.25c-.26.42-.67.75-1.23.99Z"></path><path class="cls-2" d="M501.63,97.04c-.39-.52-.73-1.13-1.04-1.83l-3.48-8.47c.8-.46,1.47-.97,2.02-1.55,1.23-1.3,1.85-2.89,1.85-4.77,0-2.06-.7-3.66-2.09-4.79-1.4-1.13-3.37-1.69-5.93-1.69h-9.89v.28c.38.26.67.66.88,1.21.21.55.32,1.32.32,2.31v16.79c0,.96-.09,1.71-.28,2.25s-.46.93-.81,1.16v.28h5.95v-.28c-.35-.23-.62-.62-.81-1.16s-.28-1.29-.28-2.25v-4.72l5.53-1.65c.08-.02.15-.05.23-.07l2.79,7.11c.28.68.38,1.26.3,1.72-.08.47-.3.81-.65,1.02v.28h6.34v-.28c-.23-.09-.54-.4-.93-.92ZM488.02,86.25v-8.85h4.61c1.41,0,2.5.28,3.27.83.77.55,1.16,1.32,1.16,2.31,0,.8-.18,1.48-.53,2.06-.35.58-.93,1.08-1.72,1.51-.8.43-1.87.83-3.2,1.18l-3.59.97Z"></path><path class="cls-2" d="M520.39,73.95h-12.64c-.45,0-.91-.02-1.39-.07-.48-.05-.91-.12-1.29-.21v5.1h.28c.26-.45.67-.78,1.23-1,.56-.22,1.31-.33,2.25-.33h3.38v17.11c0,.96-.1,1.71-.3,2.25-.2.54-.49.93-.86,1.16v.28h6.02v-.28c-.35-.23-.63-.62-.83-1.16-.2-.54-.3-1.29-.3-2.25v-17.11h3.34c.96,0,1.72.11,2.29.33.56.22.97.56,1.23,1h.28v-5.1c-.38.09-.8.16-1.27.21-.47.05-.95.07-1.44.07Z"></path><path class="cls-2" d="M547.41,95.95l-11.12-22.46h-.35l-11.16,22.46c-.28.59-.56,1.04-.83,1.37-.27.33-.53.54-.79.63v.28h6.34v-.28c-.35-.21-.58-.52-.69-.92-.11-.4,0-.92.33-1.55l.92-1.87h12.1l.89,1.87c.28.61.38,1.12.28,1.53-.09.41-.32.72-.67.93v.28h6.37v-.28c-.24-.12-.49-.33-.77-.65-.28-.32-.56-.77-.84-1.36ZM540.52,90.21h-8.83l4.38-9.32,4.45,9.32Z"></path><path class="cls-2" d="M552.52,74.23c.35.24.62.62.81,1.16s.28,1.29.28,2.25v16.9c0,.96-.09,1.71-.28,2.25s-.46.93-.81,1.16v.28h5.95v-.28c-.35-.23-.62-.62-.81-1.16s-.28-1.29-.28-2.25v-16.9c0-.96.09-1.71.28-2.25s.46-.93.81-1.16v-.28h-5.95v.28Z"></path><path class="cls-2" d="M577.24,74.23c.35.24.62.62.81,1.16.19.54.28,1.29.28,2.25v6.88l-9.36-7.8c-.45-.4-.72-.82-.83-1.27-.11-.45-.03-.89.23-1.34v-.18h-5v.28c.38.26.67.69.88,1.29.21.6.32,1.38.32,2.34v16.69c0,.96-.09,1.71-.28,2.25s-.46.93-.81,1.16v.28h5.95v-.28c-.35-.23-.62-.62-.81-1.16s-.28-1.29-.28-2.25v-13.79l10,8.38v5.41c0,.96-.09,1.71-.28,2.25-.19.54-.46.93-.81,1.16v.28h5.95v-.28c-.35-.23-.63-.62-.83-1.16-.2-.54-.3-1.29-.3-2.25v-16.9c0-.96.1-1.71.3-2.25.2-.54.47-.93.83-1.16v-.28h-5.95v.28Z"></path><path class="cls-2" d="M608.11,74.12c.26.38.35.82.26,1.34-.08.52-.39,1.03-.93,1.55l-6.58,6.41-6.93-6.55c-.49-.47-.77-.95-.84-1.44s.05-.93.35-1.3v-.18h-5.35v.28c.38.26.67.69.88,1.29.21.6.32,1.38.32,2.34v16.69c0,.96-.09,1.71-.28,2.25s-.46.93-.81,1.16v.28h5.95v-.28c-.35-.23-.62-.62-.81-1.16s-.28-1.29-.28-2.25v-13.78l7.67,7.2h.14l7.64-7.27v13.86c0,.96-.09,1.71-.28,2.25s-.46.93-.81,1.16v.28h5.95v-.28c-.35-.23-.62-.62-.81-1.16s-.28-1.29-.28-2.25v-16.69c0-.96.11-1.74.32-2.34.21-.6.5-1.03.88-1.29v-.28h-5.35v.18Z"></path><path class="cls-2" d="M633.57,94.4c-.56.23-1.33.35-2.29.35h-8.03v-8.34h4.01c.82,0,1.43.08,1.83.23s.7.36.92.62h.28v-5.18h-.28c-.21.26-.52.46-.92.62-.4.15-1.01.23-1.83.23h-4.01v-5.49h7.85c.94,0,1.69.11,2.25.33.56.22.97.56,1.23,1h.28v-5.1c-.38.09-.8.16-1.27.21-.47.05-.95.07-1.44.07h-13.87v.28c.38.26.67.66.88,1.21.21.55.32,1.32.32,2.31v16.69c0,.99-.11,1.75-.32,2.31-.21.55-.5.96-.88,1.21v.28h14.08c.49,0,.97.02,1.44.05.47.04.88.11,1.23.23v-5.1h-.25c-.26.42-.67.75-1.23.99Z"></path><path class="cls-2" d="M653.37,74.23c.35.24.62.62.81,1.16.19.54.28,1.29.28,2.25v6.88l-9.36-7.8c-.45-.4-.72-.82-.83-1.27-.11-.45-.03-.89.23-1.34v-.18h-5v.28c.38.26.67.69.88,1.29.21.6.32,1.38.32,2.34v16.69c0,.96-.09,1.71-.28,2.25s-.46.93-.81,1.16v.28h5.95v-.28c-.35-.23-.62-.62-.81-1.16s-.28-1.29-.28-2.25v-13.79l10,8.38v5.41c0,.96-.09,1.71-.28,2.25-.19.54-.46.93-.81,1.16v.28h5.95v-.28c-.35-.23-.63-.62-.83-1.16-.2-.54-.3-1.29-.3-2.25v-16.9c0-.96.1-1.71.3-2.25.2-.54.47-.93.83-1.16v-.28h-5.95v.28Z"></path><path class="cls-2" d="M680.04,73.88c-.47.05-.95.07-1.44.07h-12.64c-.45,0-.91-.02-1.39-.07-.48-.05-.91-.12-1.29-.21v5.1h.28c.26-.45.67-.78,1.23-1,.56-.22,1.31-.33,2.25-.33h3.38v17.11c0,.96-.1,1.71-.3,2.25-.2.54-.49.93-.86,1.16v.28h6.02v-.28c-.35-.23-.63-.62-.83-1.16-.2-.54-.3-1.29-.3-2.25v-17.11h3.34c.96,0,1.72.11,2.29.33.56.22.97.56,1.23,1h.28v-5.1c-.38.09-.8.16-1.27.21Z"></path></g></g></svg> 